<svg width="50" height="50" viewBox="0 0 50 50" fill="none" xmlns="http://www.w3.org/2000/svg">
<circle cx="25" cy="25" r="25" fill="#EBFF88"/>
<path d="M24.7198 39.0651C23.0706 39.0651 21.5347 38.7765 20.1123 38.1993C18.6898 37.6427 17.4529 36.8284 16.4015 35.7564C15.3501 34.6637 14.5152 33.3134 13.8968 31.7055C13.2989 30.0768 13 28.2112 13 26.1084C13 24.15 13.2783 22.377 13.8349 20.7897C14.3915 19.1817 15.1852 17.8211 16.216 16.7078C17.2467 15.574 18.4734 14.7081 19.8958 14.1103C21.3389 13.4918 22.9469 13.1826 24.7198 13.1826C26.5339 13.1826 28.1729 13.4918 29.6365 14.1103C31.1002 14.7081 32.3371 15.574 33.3473 16.7078C34.3574 17.8211 35.1305 19.1817 35.6665 20.7897C36.2231 22.3977 36.5014 24.2221 36.5014 26.263C36.5014 28.2833 36.2334 30.0872 35.6974 31.6745C35.1614 33.2619 34.3884 34.6122 33.3782 35.7254C32.3681 36.818 31.1311 37.6427 29.6675 38.1993C28.2038 38.7765 26.5546 39.0651 24.7198 39.0651ZM24.7816 35.911C26.5958 35.911 27.9976 35.0657 28.9872 33.3753C29.9973 31.6848 30.5024 29.2625 30.5024 26.1084C30.5024 24.5829 30.3684 23.212 30.1004 21.9957C29.8324 20.7794 29.4407 19.7486 28.9253 18.9034C28.4305 18.0375 27.8224 17.3778 27.1009 16.9243C26.3999 16.4708 25.6062 16.244 24.7198 16.244C23.8127 16.244 22.9881 16.4811 22.246 16.9552C21.5244 17.4088 20.906 18.0684 20.3906 18.9343C19.8752 19.7795 19.4732 20.8206 19.1846 22.0575C18.9166 23.2738 18.7826 24.655 18.7826 26.2012C18.7826 29.2729 19.3083 31.6642 20.3597 33.3753C21.4317 35.0657 22.9056 35.911 24.7816 35.911Z" fill="black"/>
<path d="M35.5617 10C34.2724 12.3882 32.4124 14.42 30.1693 15.923C31.9568 17.2171 33.5244 18.7467 34.8139 20.4592C35.5544 18.6859 35.9948 16.7538 36.0697 14.7229C36.1299 13.0909 35.95 11.5054 35.5617 10Z" fill="black"/>
<path d="M14.3177 10C15.607 12.3882 17.467 14.42 19.7101 15.923C17.9226 17.2171 16.355 18.7467 15.0655 20.4592C14.325 18.6859 13.8846 16.7538 13.8097 14.7229C13.7495 13.0909 13.9294 11.5054 14.3177 10Z" fill="black"/>
</svg>
