<svg width="93" height="40" viewBox="0 0 93 40" fill="none" xmlns="http://www.w3.org/2000/svg">
<path d="M13.3556 33.122C11.4762 33.122 9.72597 32.7931 8.10498 32.1353C6.48398 31.501 5.07442 30.5731 3.87629 29.3515C2.67817 28.1063 1.72671 26.5676 1.02193 24.7351C0.340644 22.8792 0 20.7531 0 18.3569C0 16.1251 0.317151 14.1047 0.951454 12.2958C1.58576 10.4633 2.49023 8.91281 3.66486 7.6442C4.83949 6.35211 6.23731 5.36541 7.85831 4.68412C9.50279 3.97934 11.3352 3.62695 13.3556 3.62695C15.423 3.62695 17.2906 3.97934 18.9586 4.68412C20.6266 5.36541 22.0361 6.35211 23.1873 7.6442C24.3384 8.91281 25.2194 10.4633 25.8302 12.2958C26.4645 14.1282 26.7817 16.2073 26.7817 18.5331C26.7817 20.8354 26.4763 22.891 25.8655 24.6999C25.2546 26.5088 24.3737 28.0476 23.2225 29.3162C22.0714 30.5613 20.6618 31.501 18.9938 32.1353C17.3259 32.7931 15.4464 33.122 13.3556 33.122ZM13.4261 29.5276C15.4934 29.5276 17.0909 28.5644 18.2186 26.638C19.3697 24.7116 19.9453 21.9513 19.9453 18.3569C19.9453 16.6184 19.7926 15.0561 19.4872 13.6701C19.1818 12.284 18.7354 11.1094 18.1481 10.1462C17.5843 9.15948 16.8912 8.40772 16.069 7.89088C15.2702 7.37404 14.3658 7.11562 13.3556 7.11562C12.3219 7.11562 11.3822 7.38578 10.5365 7.92612C9.71423 8.44296 9.00945 9.19472 8.42213 10.1814C7.83481 11.1446 7.3767 12.331 7.04781 13.7406C6.7424 15.1266 6.5897 16.7006 6.5897 18.4626C6.5897 21.963 7.18876 24.6882 8.38689 26.638C9.60851 28.5644 11.2882 29.5276 13.4261 29.5276Z" fill="#7DA100"/>
<path d="M92.9999 9.23633V11.2097C92.5065 11.4211 92.0484 11.5973 91.6256 11.7383C91.2262 11.8793 90.8386 12.0085 90.4627 12.1259H90.4274C89.6287 14.6162 88.8534 16.9419 88.1017 19.1033C87.3734 21.2411 86.6334 23.3319 85.8816 25.3758C85.1298 27.4197 84.3428 29.4518 83.5206 31.4722C82.7218 33.516 81.8644 35.6421 80.9481 37.8504C80.7602 38.2028 80.5605 38.5082 80.3491 38.7666C80.1611 39.0485 79.9027 39.2717 79.5738 39.4362C79.2684 39.6241 78.8808 39.7533 78.4109 39.8238C77.9646 39.9178 77.4125 39.9648 76.7547 39.9648C75.768 39.9648 74.8518 39.9178 74.006 39.8238C73.1603 39.7298 72.2911 39.5771 71.3984 39.3657V37.3923C72.2676 37.3453 72.9959 37.2866 73.5832 37.2161C74.1705 37.1456 74.6521 37.0634 75.028 36.9694C75.4039 36.899 75.6975 36.7932 75.9089 36.6523C76.1439 36.5348 76.3318 36.3821 76.4728 36.1942C76.9661 35.4424 77.4595 34.6202 77.9528 33.7275C78.4697 32.8347 78.9747 31.895 79.4681 30.9083L71.9974 12.1259C71.739 12.0789 71.4923 12.0202 71.2574 11.9497C71.046 11.8558 70.811 11.75 70.5526 11.6326L69.9536 11.4211C69.6481 11.3037 69.472 11.245 69.425 11.245C69.425 11.2215 69.4015 11.2097 69.3545 11.2097V9.23633H80.4195V11.1392C79.9497 11.3507 79.5386 11.5269 79.1862 11.6678C78.8338 11.8088 78.4462 11.938 78.0233 12.0555L82.2167 24.072L86.1635 12.0555C85.6702 11.9145 85.2003 11.7735 84.754 11.6326C84.3076 11.4916 83.9082 11.3272 83.5558 11.1392V9.23633H92.9999Z" fill="#000000"/>
<path d="M58.6392 28.5818C59.203 28.3469 59.6963 28.1589 60.1192 28.018C60.5656 27.877 60.9649 27.7595 61.3173 27.6656V2.75157L58.9563 2.01155V0.179125C60.4129 0.13214 61.8224 0.0969014 63.185 0.0734076C64.5476 0.0264228 65.8749 0.00292969 67.167 0.00292969V27.7361C67.6369 27.9005 68.0597 28.0415 68.4356 28.1589C68.8115 28.2999 69.1874 28.4643 69.5633 28.6523V30.5552H58.6392V28.5818Z" fill="#000000"/>
<path d="M59.5307 11.2097C58.4736 11.6326 57.5808 11.938 56.8526 12.1259L50.8619 31.0493H47.0561L43.3913 19.8785L40.0083 31.014V31.0493H36.132L30.0709 12.1259C29.5306 11.985 28.6848 11.6796 27.5337 11.2097V9.23633H38.4226V11.1392C37.8822 11.3977 37.5063 11.5504 37.2949 11.5973L36.0263 12.0555L39.2331 23.5434L42.8627 11.844H45.9285L49.8752 23.3319L52.7296 12.0555L51.461 11.5973C51.2731 11.5504 50.8972 11.3977 50.3333 11.1392V9.23633H59.5307V11.2097Z" fill="#000000"/>
<path d="M25.7109 -5.1742e-08C24.2417 2.72151 22.122 5.03688 19.5659 6.74971C21.6028 8.22447 23.3892 9.96754 24.8587 11.9191C25.7025 9.89824 26.2044 7.69648 26.2898 5.38205C26.3583 3.52234 26.1534 1.71554 25.7109 -5.1742e-08Z" fill="#7DA100"/>
<path d="M1.50202 -5.1742e-08C2.97121 2.72151 5.09086 5.03688 7.64703 6.74971C5.61005 8.22447 3.82367 9.96754 2.35421 11.9191C1.51036 9.89824 1.00849 7.69648 0.923125 5.38205C0.854546 3.52234 1.05948 1.71554 1.50202 -5.1742e-08Z" fill="#7DA100"/>
</svg>
