<svg width="99" height="123" viewBox="0 0 99 123" fill="none" xmlns="http://www.w3.org/2000/svg">
<path d="M49.3697 122.429C42.4224 122.429 35.9526 121.214 29.9605 118.782C23.9684 116.438 18.7579 113.008 14.3289 108.492C9.9 103.89 6.38289 98.2021 3.77763 91.4289C1.25921 84.5689 0 76.7102 0 67.8529C0 59.6035 1.17237 52.1356 3.5171 45.4492C5.86184 38.676 9.20526 32.9448 13.5474 28.2557C17.8895 23.4797 23.0566 19.8326 29.0487 17.3144C35.1276 14.7093 41.9013 13.4067 49.3697 13.4067C57.0118 13.4067 63.9158 14.7093 70.0816 17.3144C76.2474 19.8326 81.4579 23.4797 85.7132 28.2557C89.9684 32.9448 93.225 38.676 95.4829 45.4492C97.8276 52.2225 99 59.9074 99 68.5042C99 77.0141 97.8711 84.6123 95.6132 91.2987C93.3553 97.985 90.0987 103.673 85.8434 108.362C81.5882 112.964 76.3776 116.438 70.2118 118.782C64.0461 121.214 57.0987 122.429 49.3697 122.429ZM49.6303 109.143C57.2724 109.143 63.1776 105.583 67.3461 98.4626C71.6013 91.3421 73.7289 81.1389 73.7289 67.8529C73.7289 61.4271 73.1645 55.6525 72.0355 50.5291C70.9066 45.4058 69.2566 41.064 67.0855 37.5037C65.0013 33.8566 62.4395 31.0779 59.4 29.1675C56.4474 27.2571 53.1039 26.3019 49.3697 26.3019C45.5487 26.3019 42.075 27.3005 38.9487 29.2977C35.9092 31.2081 33.3039 33.9869 31.1329 37.634C28.9618 41.1943 27.2684 45.5795 26.0526 50.7897C24.9237 55.913 24.3592 61.731 24.3592 68.2437C24.3592 81.1823 26.5737 91.2552 31.0026 98.4626C35.5184 105.583 41.7276 109.143 49.6303 109.143Z" fill="#EBFF88"/>
<path d="M95.0416 -1.94724e-07C89.6107 10.0595 81.7753 18.6178 72.3262 24.949C79.8561 30.4001 86.4595 36.843 91.8915 44.0565C95.0108 36.5869 96.866 28.4485 97.1816 19.8937C97.4351 13.0196 96.6775 6.34116 95.0416 -1.94724e-07Z" fill="#EBFF88"/>
<path d="M5.55112 -1.94724e-07C10.9821 10.0595 18.8175 18.6178 28.2665 24.949C20.7367 30.4001 14.1333 36.843 8.70131 44.0565C5.58199 36.5869 3.72677 28.4485 3.41122 19.8937C3.15771 13.0196 3.91526 6.34116 5.55112 -1.94724e-07Z" fill="#EBFF88"/>
</svg>
