<svg width="166" height="72" viewBox="0 0 166 72" fill="none" xmlns="http://www.w3.org/2000/svg">
<path d="M166 16.4851V20.0073C165.119 20.3846 164.301 20.6991 163.547 20.9507C162.834 21.2023 162.142 21.4329 161.471 21.6425H161.408C159.982 26.0872 158.599 30.2383 157.257 34.0959C155.957 37.9115 154.636 41.6433 153.294 45.2913C151.952 48.9392 150.547 52.5662 149.08 56.1722C147.654 59.8201 146.123 63.6148 144.488 67.5563C144.153 68.1852 143.796 68.7303 143.419 69.1916C143.083 69.6947 142.622 70.0931 142.035 70.3866C141.49 70.722 140.798 70.9526 139.959 71.0784C139.162 71.2461 138.177 71.33 137.003 71.33C135.242 71.33 133.606 71.2461 132.097 71.0784C130.587 70.9107 129.036 70.6382 127.442 70.2608V66.7386C128.994 66.6548 130.294 66.5499 131.342 66.4242C132.39 66.2984 133.25 66.1516 133.921 65.9839C134.592 65.8581 135.116 65.6694 135.493 65.4178C135.913 65.2082 136.248 64.9356 136.5 64.6002C137.38 63.2584 138.261 61.7908 139.142 60.1975C140.064 58.6041 140.966 56.9269 141.846 55.1658L128.511 21.6425C128.05 21.5587 127.61 21.4538 127.191 21.3281C126.813 21.1603 126.394 20.9717 125.933 20.762L124.863 20.3846C124.318 20.175 124.004 20.0701 123.92 20.0701C123.92 20.0282 123.878 20.0073 123.794 20.0073V16.4851H143.545V19.8815C142.706 20.2588 141.972 20.5733 141.343 20.8249C140.714 21.0765 140.022 21.3071 139.267 21.5167L146.752 42.9641L153.797 21.5167C152.917 21.2652 152.078 21.0136 151.281 20.762C150.484 20.5104 149.772 20.2169 149.143 19.8815V16.4851H166Z" fill="white"/>
<path d="M104.668 51.0114C105.674 50.5921 106.555 50.2567 107.31 50.0051C108.106 49.7535 108.819 49.5439 109.448 49.3762V4.90903L105.234 3.58822V0.317652C107.834 0.233792 110.35 0.170897 112.782 0.128965C115.214 0.045105 117.583 0.00317383 119.89 0.00317383V49.502C120.728 49.7955 121.483 50.047 122.154 50.2567C122.825 50.5083 123.496 50.8018 124.167 51.1372V54.5336H104.668V51.0114Z" fill="white"/>
<path d="M106.26 20.0073C104.373 20.762 102.779 21.3071 101.479 21.6425L90.7862 55.4174H83.993L77.4514 35.4796L71.4131 55.3545V55.4174H64.4941L53.6753 21.6425C52.7108 21.391 51.2012 20.8459 49.1465 20.0073V16.4851H68.5826V19.8815C67.6181 20.3427 66.9472 20.6152 66.5698 20.6991L64.3054 21.5167L70.0293 42.0207L76.5079 21.1394H81.9802L89.025 41.6433L94.1199 21.5167L91.8555 20.6991C91.5201 20.6152 90.8491 20.3427 89.8427 19.8815V16.4851H106.26V20.0073Z" fill="white"/>
<path d="M23.8391 59.1172C20.4844 59.1172 17.3604 58.5302 14.467 57.3561C11.5736 56.224 9.05759 54.5677 6.91899 52.3874C4.78039 50.1651 3.0821 47.4186 1.8241 44.1481C0.608033 40.8356 0 37.0409 0 32.764C0 28.7806 0.566099 25.1746 1.6983 21.9459C2.8305 18.6754 4.44493 15.908 6.54159 13.6437C8.63826 11.3376 11.1333 9.57648 14.0267 8.3605C16.962 7.10259 20.2328 6.47363 23.8391 6.47363C27.5292 6.47363 30.8629 7.10259 33.8402 8.3605C36.8174 9.57648 39.3334 11.3376 41.3881 13.6437C43.4429 15.908 45.0154 18.6754 46.1056 21.9459C47.2378 25.2165 47.8039 28.9273 47.8039 33.0784C47.8039 37.1876 47.2588 40.8565 46.1685 44.0852C45.0783 47.3138 43.5058 50.0602 41.451 52.3245C39.3963 54.5468 36.8803 56.224 33.9031 57.3561C30.9258 58.5302 27.5711 59.1172 23.8391 59.1172ZM23.9649 52.7019C27.655 52.7019 30.5065 50.9827 32.5193 47.5444C34.574 44.1061 35.6014 39.1793 35.6014 32.764C35.6014 29.6611 35.3288 26.8728 34.7837 24.3989C34.2385 21.925 33.4418 19.8285 32.3935 18.1093C31.3871 16.3482 30.15 15.0065 28.6824 14.084C27.2566 13.1615 25.6422 12.7003 23.8391 12.7003C21.994 12.7003 20.3167 13.1825 18.8071 14.1469C17.3394 15.0694 16.0814 16.4111 15.0331 18.1722C13.9847 19.8913 13.167 22.0088 12.58 24.5247C12.0349 26.9985 11.7623 29.8079 11.7623 32.9527C11.7623 39.2003 12.8316 44.0642 14.9702 47.5444C17.1507 50.9827 20.1489 52.7019 23.9649 52.7019Z" fill="#EBFF88"/>
<path d="M45.8928 -9.40258e-08C43.2703 4.85742 39.4869 8.98995 34.9242 12.0471C38.5601 14.6792 41.7487 17.7903 44.3717 21.2735C45.8779 17.6666 46.7737 13.7369 46.9261 9.60603C47.0485 6.28676 46.6827 3.06194 45.8928 -9.40258e-08Z" fill="#EBFF88"/>
<path d="M2.68046 -9.40258e-08C5.30291 4.85742 9.08637 8.98995 13.649 12.0471C10.0131 14.6792 6.82451 17.7903 4.20159 21.2735C2.69537 17.6666 1.79954 13.7369 1.64717 9.60603C1.52476 6.28676 1.89056 3.06194 2.68046 -9.40258e-08Z" fill="#EBFF88"/>
</svg>
