<svg width="174" height="174" viewBox="0 0 174 174" fill="none" xmlns="http://www.w3.org/2000/svg">
<rect width="173.176" height="173.176" rx="86.5879" fill="#243544"/>
<path d="M86.3123 139.456C80.3175 139.456 74.7349 138.407 69.5644 136.309C64.3939 134.286 59.8978 131.326 56.0761 127.429C52.2545 123.458 49.2196 118.55 46.9716 112.705C44.7985 106.785 43.7119 100.003 43.7119 92.36C43.7119 85.2412 44.7235 78.7968 46.7468 73.0269C48.77 67.182 51.655 62.2363 55.4017 58.1898C59.1485 54.0684 63.6071 50.9211 68.7776 48.748C74.023 46.5 79.8679 45.376 86.3123 45.376C92.9065 45.376 98.8638 46.5 104.184 48.748C109.505 50.9211 114.001 54.0684 117.672 58.1898C121.344 62.2363 124.154 67.182 126.103 73.0269C128.126 78.8718 129.137 85.5035 129.137 92.922C129.137 100.266 128.163 106.822 126.215 112.592C124.267 118.362 121.457 123.271 117.785 127.317C114.113 131.289 109.617 134.286 104.297 136.309C98.9762 138.407 92.9814 139.456 86.3123 139.456ZM86.5371 127.991C93.1313 127.991 98.2269 124.919 101.824 118.774C105.496 112.63 107.331 103.825 107.331 92.36C107.331 86.8148 106.844 81.8317 105.87 77.4105C104.896 72.9894 103.472 69.2427 101.599 66.1703C99.8005 63.0231 97.5899 60.6252 94.9672 58.9766C92.4194 57.3281 89.5345 56.5038 86.3123 56.5038C83.0151 56.5038 80.0178 57.3655 77.3201 59.089C74.6974 60.7376 72.4494 63.1355 70.576 66.2827C68.7026 69.3551 67.2414 73.1393 66.1923 77.6353C65.2182 82.0565 64.7311 87.0771 64.7311 92.6972C64.7311 103.862 66.6419 112.555 70.4636 118.774C74.3602 124.919 79.718 127.991 86.5371 127.991Z" fill="#EBFF88"/>
<path d="M125.722 33.8071C121.036 42.4879 114.275 49.8733 106.122 55.3367C112.619 60.0407 118.317 65.6006 123.004 71.8254C125.696 65.3795 127.297 58.3566 127.569 50.9743C127.788 45.0423 127.134 39.2792 125.722 33.8071Z" fill="#EBFF88"/>
<path d="M48.5031 33.8071C53.1894 42.4879 59.9504 49.8733 68.1038 55.3367C61.6065 60.0407 55.9085 65.6006 51.2213 71.8254C48.5297 65.3795 46.9289 58.3566 46.6566 50.9743C46.4379 45.0423 47.0915 39.2792 48.5031 33.8071Z" fill="#EBFF88"/>
</svg>
