<svg width="459" height="139" viewBox="0 0 459 139" fill="none" xmlns="http://www.w3.org/2000/svg">
<path d="M46.4031 116.164C39.8732 116.164 33.7923 115.022 28.1602 112.736C22.5282 110.532 17.6307 107.308 13.4679 103.064C9.30512 98.7376 5.99935 93.3912 3.55064 87.0246C1.18355 80.5763 0 73.1893 0 64.8637C0 57.1094 1.10192 50.0898 3.30576 43.8047C5.50961 37.4381 8.65213 32.0509 12.7333 27.6432C16.8145 23.1539 21.6711 19.7257 27.3032 17.3586C33.0168 14.9099 39.3835 13.6855 46.4031 13.6855C53.586 13.6855 60.0751 14.9099 65.8704 17.3586C71.6657 19.7257 76.5631 23.1539 80.5627 27.6432C84.5623 32.0509 87.6232 37.4381 89.7454 43.8047C91.9492 50.1714 93.0512 57.3951 93.0512 65.4759C93.0512 73.475 91.99 80.6171 89.8678 86.9021C87.7456 93.1872 84.6847 98.5335 80.6852 102.941C76.6856 107.267 71.7881 110.532 65.9929 112.736C60.1976 115.022 53.6677 116.164 46.4031 116.164ZM46.648 103.676C53.8309 103.676 59.3813 100.329 63.2993 93.6361C67.2988 86.9429 69.2986 77.3521 69.2986 64.8637C69.2986 58.8235 68.7681 53.3955 67.707 48.5797C66.6459 43.7639 65.095 39.6827 63.0544 36.3362C61.0954 32.908 58.6875 30.296 55.8307 28.5003C53.0555 26.7045 49.913 25.8067 46.4031 25.8067C42.8117 25.8067 39.5467 26.7454 36.6083 28.6227C33.7514 30.4184 31.3027 33.0304 29.2621 36.4586C27.2215 39.8052 25.6299 43.9272 24.4871 48.8246C23.426 53.6404 22.8955 59.1092 22.8955 65.231C22.8955 77.3929 24.9769 86.8613 29.1397 93.6361C33.3841 100.329 39.2202 103.676 46.648 103.676Z" fill="#EBFF88"/>
<path d="M89.3303 1.08398C84.2257 10.5397 76.8611 18.5843 67.9799 24.5354C75.0572 29.6594 81.2639 35.7156 86.3694 42.4961C89.3013 35.4748 91.0451 27.8249 91.3417 19.7836C91.5799 13.3221 90.8679 7.04453 89.3303 1.08398Z" fill="#EBFF88"/>
<path d="M5.21849 1.08398C10.3231 10.5397 17.6877 18.5843 26.5689 24.5354C19.4916 29.6594 13.2849 35.7156 8.17938 42.4961C5.24749 35.4748 3.50376 27.8249 3.20717 19.7836C2.96889 13.3221 3.68092 7.04453 5.21849 1.08398Z" fill="#EBFF88"/>
<path d="M440.146 22.1861C437.04 22.1861 434.425 21.1237 432.301 18.9991C430.176 16.8745 429.114 14.2187 429.114 11.0317C429.114 7.76308 430.135 5.10729 432.178 3.06437C434.303 1.02146 436.959 0 440.146 0C443.578 0 446.315 1.06232 448.358 3.18695C450.483 5.22987 451.545 7.8448 451.545 11.0317C451.545 14.2187 450.483 16.8745 448.358 18.9991C446.315 21.1237 443.578 22.1861 440.146 22.1861ZM420.901 99.4083C422.454 98.7545 424.007 98.1417 425.559 97.5697C427.194 97.0794 428.746 96.6299 430.217 96.2213V40.94L422.005 38.366V32.1146C431.892 31.6243 441.331 31.3792 450.319 31.3792V96.4665C452.281 97.1202 453.874 97.6922 455.1 98.1825C456.407 98.6728 457.592 99.1631 458.654 99.6534V106.272H420.901V99.4083Z" fill="white"/>
<path d="M402.701 32.1146H417.901V42.4109H402.701V96.4665C404.581 97.1202 406.133 97.6514 407.359 98.06C408.667 98.5503 409.852 99.0814 410.914 99.6534V106.272H372.916V99.4083C374.55 98.7545 376.143 98.1417 377.696 97.5697C379.33 97.0794 380.883 96.6299 382.354 96.2213V42.4109H372.303V32.1146H382.354V24.6376C382.354 16.711 384.315 10.6232 388.237 6.3739C392.16 2.12463 397.839 0 405.275 0C407.89 0 410.587 0.163434 413.365 0.490301C416.225 0.817168 418.636 1.26661 420.597 1.83862L421.088 1.9612C421.496 4.73956 421.741 7.15021 421.823 9.19312C421.986 11.236 422.15 13.6467 422.313 16.425L414.959 17.7734L411.527 10.0511C410.873 9.72428 410.26 9.51999 409.688 9.43827C409.198 9.27484 408.585 9.19312 407.849 9.19312C404.417 9.19312 402.701 12.4618 402.701 18.9991V32.1146Z" fill="white"/>
<path d="M346.747 108.234C343.315 108.234 340.455 107.049 338.166 104.679C335.878 102.391 334.734 99.5309 334.734 96.0988C334.734 94.4644 335.02 92.9118 335.592 91.4409C336.246 89.97 337.104 88.7034 338.166 87.6411C339.311 86.5788 340.618 85.7616 342.089 85.1896C343.641 84.5359 345.276 84.209 346.992 84.209C348.544 84.209 350.015 84.5359 351.405 85.1896C352.875 85.7616 354.142 86.6196 355.204 87.7637C356.348 88.826 357.206 90.0926 357.778 91.5635C358.432 93.0344 358.759 94.587 358.759 96.2213C358.759 99.5717 357.574 102.391 355.204 104.679C352.916 107.049 350.097 108.234 346.747 108.234Z" fill="white"/>
<path d="M325.436 32.1147V38.9789C323.72 39.7144 322.127 40.3273 320.656 40.8176C319.267 41.3079 317.918 41.7573 316.611 42.1659H316.488C313.71 50.8279 311.013 58.9178 308.398 66.4357C305.865 73.8719 303.291 81.1447 300.676 88.2541C298.061 95.3634 295.324 102.432 292.464 109.46C289.685 116.569 286.703 123.964 283.516 131.646C282.862 132.871 282.167 133.934 281.432 134.833C280.778 135.813 279.879 136.589 278.735 137.161C277.673 137.815 276.325 138.265 274.69 138.51C273.138 138.837 271.217 139 268.929 139C265.497 139 262.31 138.837 259.368 138.51C256.427 138.183 253.403 137.652 250.298 136.916V130.052C253.321 129.889 255.855 129.684 257.897 129.439C259.94 129.194 261.616 128.908 262.923 128.581C264.231 128.336 265.252 127.968 265.987 127.478C266.805 127.069 267.458 126.538 267.949 125.885C269.665 123.27 271.381 120.41 273.097 117.304C274.895 114.199 276.651 110.93 278.367 107.498L252.382 42.1659C251.483 42.0025 250.625 41.7982 249.808 41.553C249.072 41.2261 248.255 40.8584 247.356 40.4498L245.272 39.7144C244.21 39.3058 243.597 39.1015 243.434 39.1015C243.434 39.0198 243.352 38.9789 243.188 38.9789V32.1147H281.677V38.7338C280.043 39.4692 278.613 40.0821 277.387 40.5724C276.161 41.0627 274.813 41.5122 273.342 41.9207L287.928 83.7188L301.657 41.9207C299.941 41.4304 298.306 40.9401 296.754 40.4498C295.201 39.9595 293.812 39.3875 292.586 38.7338V32.1147H325.436Z" fill="white"/>
<path d="M205.916 99.4083C207.877 98.5911 209.593 97.9374 211.064 97.4471C212.617 96.9568 214.006 96.5482 215.232 96.2213V9.56085L207.019 6.98677V0.612874C212.086 0.449443 216.989 0.326867 221.728 0.245147C226.468 0.0817156 231.085 0 235.579 0V96.4665C237.213 97.0385 238.684 97.5288 239.992 97.9374C241.299 98.4277 242.607 98.9997 243.914 99.6534V106.272H205.916V99.4083Z" fill="white"/>
<path d="M209.017 38.9789C205.34 40.4498 202.234 41.5122 199.701 42.1659L178.863 107.989H165.625L152.877 69.1324L141.11 107.866V107.989H127.627L106.544 42.1659C104.665 41.6756 101.723 40.6133 97.7188 38.9789V32.1147H135.594V38.7338C133.715 39.6327 132.407 40.1638 131.672 40.3273L127.259 41.9207L138.414 81.8802L151.039 41.1853H161.703L175.431 81.1447L185.36 41.9207L180.947 40.3273C180.293 40.1638 178.986 39.6327 177.025 38.7338V32.1147H209.017V38.9789Z" fill="white"/>
</svg>
