<svg width="166" height="72" viewBox="0 0 166 72" fill="none" xmlns="http://www.w3.org/2000/svg">
<path d="M23.839 59.1213C20.4844 59.1213 17.3604 58.5342 14.467 57.3601C11.5736 56.2279 9.05758 54.5715 6.91898 52.391C4.78039 50.1685 3.08209 47.4219 1.8241 44.1511C0.608032 40.8384 0 37.0434 0 32.7663C0 28.7826 0.566098 25.1763 1.6983 21.9475C2.83049 18.6767 4.44492 15.9091 6.54158 13.6447C8.63824 11.3384 11.1333 9.57718 14.0267 8.36112C16.962 7.10312 20.2328 6.47412 23.839 6.47412C27.5292 6.47412 30.8629 7.10312 33.8401 8.36112C36.8174 9.57718 39.3334 11.3384 41.3881 13.6447C43.4428 15.9091 45.0153 18.6767 46.1056 21.9475C47.2378 25.2183 47.8039 28.9294 47.8039 33.0808C47.8039 37.1902 47.2587 40.8594 46.1685 44.0882C45.0782 47.3171 43.5057 50.0637 41.451 52.3281C39.3963 54.5506 36.8803 56.2279 33.903 57.3601C30.9258 58.5342 27.5711 59.1213 23.839 59.1213ZM23.9648 52.7055C27.655 52.7055 30.5064 50.9862 32.5192 47.5477C34.5739 44.1092 35.6013 39.182 35.6013 32.7663C35.6013 29.6632 35.3287 26.8746 34.7836 24.4006C34.2385 21.9265 33.4417 19.8299 32.3934 18.1106C31.387 16.3494 30.15 15.0075 28.6823 14.085C27.2566 13.1625 25.6422 12.7012 23.839 12.7012C21.994 12.7012 20.3166 13.1834 18.8071 14.1479C17.3394 15.0704 16.0814 16.4123 15.0331 18.1735C13.9847 19.8928 13.167 22.0104 12.58 24.5264C12.0348 27.0004 11.7623 29.81 11.7623 32.955C11.7623 39.203 12.8316 44.0673 14.9702 47.5477C17.1507 50.9862 20.1489 52.7055 23.9648 52.7055Z" fill="#243544"/>
<path d="M166 16.4863V20.0087C165.119 20.3861 164.301 20.7006 163.547 20.9522C162.834 21.2038 162.142 21.4344 161.471 21.6441H161.408C159.982 26.089 158.599 30.2404 157.257 34.0983C155.957 37.9142 154.636 41.6463 153.294 45.2945C151.952 48.9426 150.547 52.5699 149.08 56.1761C147.654 59.8243 146.123 63.6193 144.488 67.561C144.153 68.19 143.796 68.7351 143.419 69.1964C143.083 69.6996 142.622 70.098 142.035 70.3915C141.49 70.7269 140.798 70.9576 139.959 71.0834C139.162 71.2511 138.177 71.335 137.003 71.335C135.242 71.335 133.606 71.2511 132.097 71.0834C130.587 70.9156 129.036 70.6431 127.442 70.2657V66.7433C128.994 66.6594 130.294 66.5546 131.342 66.4288C132.39 66.303 133.25 66.1562 133.921 65.9885C134.592 65.8627 135.116 65.674 135.493 65.4224C135.913 65.2127 136.248 64.9402 136.5 64.6047C137.38 63.2628 138.261 61.7952 139.142 60.2017C140.064 58.6082 140.966 56.9309 141.846 55.1697L128.511 21.6441C128.05 21.5602 127.61 21.4554 127.191 21.3296C126.813 21.1619 126.394 20.9732 125.933 20.7635L124.863 20.3861C124.318 20.1764 124.004 20.0716 123.92 20.0716C123.92 20.0297 123.878 20.0087 123.794 20.0087V16.4863H143.544V19.8829C142.706 20.2603 141.972 20.5748 141.343 20.8264C140.714 21.078 140.022 21.3086 139.267 21.5183L146.752 42.9672L153.797 21.5183C152.917 21.2667 152.078 21.0151 151.281 20.7635C150.484 20.5119 149.772 20.2184 149.143 19.8829V16.4863H166Z" fill="#243544"/>
<path d="M104.668 51.0147C105.674 50.5954 106.555 50.2599 107.31 50.0083C108.106 49.7567 108.819 49.547 109.448 49.3793V4.90912L105.234 3.58822V0.317429C107.834 0.233564 110.35 0.170664 112.782 0.128729C115.214 0.0448637 117.583 0.00292969 119.89 0.00292969V49.5051C120.728 49.7986 121.483 50.0502 122.154 50.2599C122.825 50.5115 123.496 50.805 124.167 51.1405V54.5371H104.668V51.0147Z" fill="#243544"/>
<path d="M106.259 20.0087C104.372 20.7635 102.778 21.3086 101.478 21.6441L90.7852 55.4213H83.992L77.4504 35.4821L71.4121 55.3584V55.4213H64.4931L53.6743 21.6441C52.7098 21.3925 51.2002 20.8474 49.1455 20.0087V16.4863H68.5816V19.8829C67.6171 20.3442 66.9462 20.6167 66.5688 20.7006L64.3044 21.5183L70.0283 42.0237L76.5069 21.1409H81.9792L89.024 41.6463L94.1189 21.5183L91.8545 20.7006C91.519 20.6167 90.8481 20.3442 89.8417 19.8829V16.4863H106.259V20.0087Z" fill="#243544"/>
<path d="M45.8928 -9.23567e-08C43.2703 4.85775 39.4869 8.99057 34.9243 12.0479C38.5602 14.6802 41.7487 17.7915 44.3717 21.2749C45.8779 17.6678 46.7737 13.7378 46.9261 9.60668C47.0485 6.28719 46.6827 3.06215 45.8928 -9.23567e-08Z" fill="#243544"/>
<path d="M2.68046 -9.23567e-08C5.3029 4.85775 9.08636 8.99057 13.649 12.0479C10.0131 14.6802 6.8245 17.7915 4.20158 21.2749C2.69536 17.6678 1.79954 13.7378 1.64717 9.60668C1.52476 6.28719 1.89056 3.06215 2.68046 -9.23567e-08Z" fill="#243544"/>
</svg>
